<?xml version="1.0" encoding="utf-8"?>
<!-- Generator: Adobe Illustrator 15.0.2, SVG Export Plug-In  -->
<!DOCTYPE svg PUBLIC "-//W3C//DTD SVG 1.1//EN" "http://www.w3.org/Graphics/SVG/1.1/DTD/svg11.dtd" [
	<!ENTITY ns_flows "http://ns.adobe.com/Flows/1.0/">
]>
<svg version="1.1"
	 xmlns="http://www.w3.org/2000/svg" xmlns:xlink="http://www.w3.org/1999/xlink" xmlns:a="http://ns.adobe.com/AdobeSVGViewerExtensions/3.0/"
	 x="0px" y="0px" width="500px" height="540px" viewBox="-0.341 43 500 540"
	 overflow="visible" enable-background="new -0.341 43 500 540" xml:space="preserve">
<defs>
</defs>
<rect fill="#E5ECF3" width="504.659" height="600.135"/>
<path fill="#FEFEFE" d="M303.839,281.192c0,23.357-18.953,42.31-42.343,42.31c-23.361,0-42.313-18.953-42.313-42.31
	c0-23.386,18.952-42.308,42.313-42.308C284.886,238.884,303.839,257.81,303.839,281.192z"/>
<path fill="#9BAAC5" d="M388.456,168.368H219.18c0-15.562-12.611-28.204-28.202-28.204h-28.207
	c-15.564,0-28.179,12.642-28.206,28.204h-28.179c-15.582,0-28.213,12.616-28.213,28.207l0,0h28.186
	c15.591,0,28.202,12.641,28.202,28.204v112.824c0,15.591-12.613,28.204-28.202,28.204H78.173c0,15.594,12.631,28.208,28.213,28.208
	h282.07c15.561,0,28.202-12.614,28.202-28.208v-169.23C416.658,180.986,404.017,168.368,388.456,168.368z M261.527,351.71
	c-38.967,0-70.533-31.566-70.533-70.544c0-38.95,31.566-70.516,70.533-70.516c38.947,0,70.514,31.566,70.514,70.516
	C332.041,320.144,300.475,351.71,261.527,351.71z M367.297,252.987c-11.718,0-21.151-9.477-21.151-21.156
	c0-11.652,9.434-21.154,21.151-21.154c11.666,0,21.17,9.502,21.17,21.154C388.456,243.512,378.963,252.987,367.297,252.987z"/>
<rect x="78.168" y="196.577" width="0.005" height="169.233"/>
<path opacity="0.5" fill="#FFFFFF" enable-background="new    " d="M134.565,337.605V224.783c0-15.564-12.614-28.206-28.203-28.206
	H78.173v169.233h28.186C121.951,365.811,134.565,353.196,134.565,337.605z"/>
</svg>
