<?xml version="1.0" encoding="utf-8"?>
<!-- Generator: Adobe Illustrator 15.0.2, SVG Export Plug-In . SVG Version: 6.00 Build 0)  -->
<!DOCTYPE svg PUBLIC "-//W3C//DTD SVG 1.1//EN" "http://www.w3.org/Graphics/SVG/1.1/DTD/svg11.dtd">
<svg version="1.1" id="Layer_1" xmlns="http://www.w3.org/2000/svg" xmlns:xlink="http://www.w3.org/1999/xlink" x="0px" y="0px"
	 width="345px" height="155px" viewBox="0 0 345 155" enable-background="new 0 0 345 155" xml:space="preserve">
<rect fill="#E5ECF3" width="345" height="155"/>
<path fill="#9BAAC5" d="M221.607,30.789c0,0-19.576,0.804-29.998,2.083c-5.898,0.724-2.202-10.809-2.202-13.092
	c0-10.484-53.888,4.78-53.888,4.78v61.783c0,0,4.092,1.78,9.833-0.395c14.565-5.524,39.75-13.441,35.69-0.392
	c-3.429,11.021,39.373,2.149,39.373,2.149s-3.074-22.969,0.76-36.312C225.012,38.054,221.607,30.789,221.607,30.789z"/>
<path fill="#9BAAC5" d="M127.954,17.572c0-3.628-2.943-6.572-6.571-6.572c-3.631,0-6.572,2.944-6.572,6.572v126.735h13.143V17.572z"
	/>
</svg>
