<?xml version="1.0" encoding="utf-8"?>
<!-- Generator: Adobe Illustrator 15.0.2, SVG Export Plug-In  -->
<!DOCTYPE svg PUBLIC "-//W3C//DTD SVG 1.1//EN" "http://www.w3.org/Graphics/SVG/1.1/DTD/svg11.dtd" [
	<!ENTITY ns_flows "http://ns.adobe.com/Flows/1.0/">
]>
<svg version="1.1"
	 xmlns="http://www.w3.org/2000/svg" xmlns:xlink="http://www.w3.org/1999/xlink" xmlns:a="http://ns.adobe.com/AdobeSVGViewerExtensions/3.0/"
	 x="0px" y="0px" width="70px" height="70px" viewBox="1 0 70 70" overflow="visible" enable-background="new 1 0 70 70"
	 xml:space="preserve">
<defs>
</defs>
<rect fill="#E5ECF3" width="72" height="72"/>
<path fill="#9BAAC5" d="M3.951,63.952h61.392c0,0-0.233-7.564-0.54-8.402c-0.327-0.846-0.185-2.075-1.597-3.018
	c-1.423-0.924-1.514-0.848-4.883-2.473c-1.897-0.903-3.88-1.628-5.843-2.367c-1.803-0.676-3.611-1.336-5.4-2.048
	c-1.209-0.477-2.049-1.391-2.92-2.319c-0.313-0.338-0.664-0.695-0.881-1.103c-0.286-0.544-0.156-1.034-0.964-0.905
	c-0.828,0.106-0.596-1.546-0.596-1.546s1-0.608,1.317-1.607c0.274-0.945,0.778-4.643,0.778-4.643s0.543,0.106,0.999-0.236
	c0.503-0.314,1.188-1.26,1.733-7.171c0.093-1.228-0.636-0.653-0.636-0.704c-0.322-1.6,0.816-2.678,0.401-8.453
	c-0.079-1.097-0.274-2.182-0.89-3.115c-0.559-0.847-1.038-1.771-1.632-2.588c-0.413-0.563-0.965-1.124-1.563-1.493
	c-2.802-1.732-6.072-2.635-9.367-2.549c-0.705,0.018-1.332,0.187-2,0.402c-1.518,0.521-1.372,0.521-2.097,0.944
	c-0.455,0.265-0.807,0.505-1.125,0.925c-0.274,0.363-0.499,0.714-1.001,0.732c-2.286,0.087-2.656,2.316-3.353,4.066
	c-0.545,1.231-0.637,2.155-0.545,2.857c0.091,0.765,0.22,1.181,0.4,2.73c0.132,1.143,0.121,2.295,0.247,3.438
	c0.043,0.39,0.234,0.762,0.304,1.147c0.131,0.739-0.319,0.311-0.55,0.825c-0.18,0.498,0,3.124,0.326,4.25
	c0.322,1.183,0.361,2.811,0.868,3.337c0.504,0.577,0.595,0.233,1.14,0.42c0.503,0.236,0-0.081,0.412,1.051
	c0.363,1.101,0.221,2.101,0.599,3.411c0.491,1.911,1.36,1.179,1.593,2.205c0.179,1.052-0.183,1.052-0.183,1.052
	s-0.865-0.109-1.319,0.185c-0.584,0.361-0.949,1.488-1.246,2.062c-0.334,0.649-0.617,1.531-1.312,1.894
	c-1.681,0.868-3.621,1.383-5.393,2.051c-1.632,0.61-3.269,1.212-4.886,1.864c-0.517,0.204-1.05,0.402-1.544,0.66
	c-1.41,0.762-3.872,1.472-5.103,2.311c-1.191,0.839-2.601,2.467-2.601,3.52C4.495,56.622,3.951,63.952,3.951,63.952"/>
</svg>
