<?xml version="1.0" encoding="utf-8"?>
<!-- Generator: Adobe Illustrator 15.0.2, SVG Export Plug-In . SVG Version: 6.00 Build 0)  -->
<!DOCTYPE svg PUBLIC "-//W3C//DTD SVG 1.1//EN" "http://www.w3.org/Graphics/SVG/1.1/DTD/svg11.dtd">
<svg version="1.1" id="Layer_1" xmlns="http://www.w3.org/2000/svg" xmlns:xlink="http://www.w3.org/1999/xlink" x="0px" y="0px"
	 width="50px" height="50px" viewBox="0 0 50 50" enable-background="new 0 0 50 50" xml:space="preserve">
<rect fill="#E5ECF3" width="50" height="50"/>
<path fill="#9BAAC5" d="M4.507,42.909H43.73c0,0-0.148-4.827-0.342-5.36c-0.219-0.54-0.119-1.322-1.021-1.926
	c-0.912-0.589-0.969-0.54-3.118-1.578c-1.212-0.576-2.479-1.041-3.735-1.512c-1.146-0.432-2.308-0.854-3.453-1.307
	c-0.77-0.312-1.306-0.896-1.855-1.48c-0.201-0.219-0.432-0.444-0.562-0.703c-0.188-0.346-0.104-0.659-0.623-0.581
	c-0.521,0.073-0.377-0.981-0.377-0.981s0.64-0.387,0.842-1.021c0.182-0.604,0.494-2.962,0.494-2.962s0.354,0.066,0.646-0.151
	c0.316-0.201,0.76-0.804,1.104-4.576c0.062-0.782-0.408-0.417-0.408-0.448c-0.207-1.021,0.521-1.711,0.264-5.394
	c-0.055-0.699-0.182-1.392-0.568-1.987c-0.354-0.542-0.66-1.131-1.039-1.651c-0.267-0.36-0.615-0.719-0.998-0.955
	c-1.793-1.105-3.878-1.68-5.987-1.626c-0.449,0.01-0.85,0.119-1.277,0.255c-0.97,0.333-0.877,0.333-1.339,0.602
	c-0.292,0.171-0.517,0.323-0.72,0.592c-0.174,0.231-0.317,0.455-0.639,0.468c-1.459,0.055-1.697,1.477-2.142,2.593
	c-0.349,0.786-0.407,1.375-0.349,1.825c0.059,0.489,0.141,0.754,0.256,1.741c0.085,0.729,0.077,1.465,0.159,2.194
	c0.026,0.25,0.148,0.487,0.193,0.732c0.083,0.472-0.204,0.2-0.352,0.526c-0.115,0.318,0,1.995,0.208,2.71
	c0.206,0.757,0.231,1.794,0.555,2.131c0.321,0.368,0.379,0.149,0.729,0.267c0.321,0.151,0-0.05,0.262,0.67
	c0.233,0.704,0.142,1.34,0.382,2.173c0.314,1.225,0.871,0.754,1.019,1.406c0.115,0.67-0.117,0.67-0.117,0.67
	s-0.552-0.062-0.843,0.115c-0.375,0.229-0.606,0.951-0.796,1.32c-0.213,0.414-0.394,0.979-0.838,1.203
	c-1.074,0.557-2.314,0.883-3.444,1.308c-1.043,0.396-2.09,0.779-3.122,1.188c-0.331,0.134-0.671,0.259-0.986,0.424
	c-0.902,0.484-2.475,0.938-3.261,1.475c-0.761,0.537-1.663,1.573-1.663,2.247C4.854,38.23,4.507,42.909,4.507,42.909"/>
</svg>
