<?xml version="1.0" encoding="utf-8"?>
<!-- Generator: Adobe Illustrator 15.0.2, SVG Export Plug-In . SVG Version: 6.00 Build 0)  -->
<!DOCTYPE svg PUBLIC "-//W3C//DTD SVG 1.1//EN" "http://www.w3.org/Graphics/SVG/1.1/DTD/svg11.dtd">
<svg version="1.1" id="Layer_1" xmlns="http://www.w3.org/2000/svg" xmlns:xlink="http://www.w3.org/1999/xlink" x="0px" y="0px"
	 width="100px" height="100px" viewBox="0 0 100 100" enable-background="new 0 0 100 100" xml:space="preserve">
<rect fill="#E5ECF3" width="100" height="100"/>
<path fill="#9BAAC5" d="M5.644,91.359h87.704c0,0-0.334-10.805-0.771-12.002c-0.47-1.209-0.265-2.963-2.281-4.312
	c-2.032-1.318-2.163-1.211-6.978-3.531c-2.707-1.289-5.541-2.324-8.348-3.382c-2.574-0.968-5.156-1.909-7.715-2.926
	c-1.729-0.683-2.928-1.988-4.172-3.315c-0.447-0.479-0.947-0.992-1.259-1.572c-0.408-0.776-0.226-1.476-1.382-1.295
	c-1.182,0.153-0.85-2.205-0.85-2.205s1.426-0.864,1.885-2.297c0.394-1.349,1.109-6.629,1.109-6.629s0.775,0.152,1.43-0.336
	c0.719-0.448,1.695-1.801,2.479-10.245c0.131-1.754-0.908-0.933-0.908-1.006c-0.461-2.285,1.166-3.826,0.573-12.076
	c-0.112-1.566-0.394-3.116-1.271-4.45c-0.8-1.21-1.481-2.529-2.332-3.698c-0.586-0.805-1.377-1.606-2.229-2.134
	c-3.998-2.474-8.675-3.763-13.38-3.641c-1.006,0.026-1.903,0.267-2.856,0.573c-2.168,0.746-1.961,0.746-2.996,1.349
	c-0.65,0.379-1.153,0.722-1.607,1.323c-0.392,0.518-0.712,1.02-1.431,1.046c-3.266,0.125-3.794,3.309-4.79,5.808
	c-0.779,1.759-0.91,3.078-0.779,4.083c0.13,1.092,0.314,1.686,0.571,3.899c0.189,1.633,0.172,3.279,0.353,4.912
	c0.061,0.558,0.334,1.088,0.433,1.64c0.188,1.056-0.457,0.445-0.785,1.177c-0.257,0.712,0,4.463,0.464,6.072
	c0.461,1.69,0.517,4.015,1.24,4.767c0.719,0.825,0.85,0.333,1.629,0.6c0.718,0.336,0-0.115,0.588,1.501
	c0.519,1.573,0.316,3,0.854,4.875c0.702,2.729,1.944,1.686,2.276,3.149c0.257,1.5-0.262,1.5-0.262,1.5s-1.234-0.155-1.884,0.263
	c-0.835,0.516-1.355,2.124-1.779,2.945c-0.478,0.93-0.881,2.189-1.874,2.706c-2.401,1.237-5.172,1.976-7.704,2.928
	c-2.33,0.875-4.669,1.734-6.98,2.662c-0.738,0.292-1.499,0.575-2.206,0.94c-2.013,1.09-5.53,2.104-7.29,3.305
	c-1.701,1.195-3.716,3.521-3.716,5.023C6.421,80.889,5.644,91.359,5.644,91.359"/>
</svg>
