<?xml version="1.0" encoding="utf-8"?>
<!-- Generator: Adobe Illustrator 15.0.2, SVG Export Plug-In . SVG Version: 6.00 Build 0)  -->
<!DOCTYPE svg PUBLIC "-//W3C//DTD SVG 1.1//EN" "http://www.w3.org/Graphics/SVG/1.1/DTD/svg11.dtd">
<svg version="1.1" id="Layer_1" xmlns="http://www.w3.org/2000/svg" xmlns:xlink="http://www.w3.org/1999/xlink" x="0px" y="0px"
	 width="30px" height="30px" viewBox="0 0 30 30" enable-background="new 0 0 30 30" xml:space="preserve">
<rect fill="#E5ECF3" width="30" height="30"/>
<path fill="#9BAAC5" d="M1.693,27.408h26.311c0,0-0.1-3.242-0.23-3.602c-0.141-0.361-0.08-0.894-0.685-1.293
	c-0.61-0.396-0.649-0.363-2.093-1.062c-0.812-0.389-1.663-0.697-2.504-1.016c-0.773-0.291-1.549-0.571-2.314-0.879
	c-0.519-0.205-0.879-0.6-1.252-0.994c-0.135-0.146-0.285-0.297-0.377-0.473c-0.123-0.232-0.068-0.441-0.415-0.391
	c-0.354,0.046-0.255-0.661-0.255-0.661s0.428-0.263,0.564-0.688c0.119-0.401,0.334-1.99,0.334-1.99s0.229,0.046,0.43-0.101
	c0.215-0.134,0.508-0.54,0.742-3.073c0.039-0.526-0.272-0.28-0.272-0.302c-0.139-0.685,0.351-1.146,0.173-3.623
	c-0.033-0.47-0.117-0.935-0.382-1.334c-0.239-0.363-0.444-0.759-0.698-1.11c-0.177-0.241-0.414-0.482-0.67-0.64
	C16.9,3.436,15.496,3.05,14.085,3.086c-0.302,0.008-0.571,0.08-0.857,0.172c-0.65,0.224-0.588,0.224-0.898,0.405
	c-0.195,0.114-0.346,0.217-0.482,0.397c-0.117,0.155-0.213,0.306-0.429,0.314c-0.979,0.04-1.138,0.996-1.437,1.745
	c-0.235,0.53-0.274,0.925-0.235,1.227c0.039,0.328,0.094,0.506,0.171,1.169C9.975,9.006,9.97,9.5,10.024,9.99
	c0.019,0.167,0.101,0.327,0.13,0.492c0.056,0.317-0.137,0.134-0.236,0.353c-0.077,0.214,0,1.339,0.14,1.821
	c0.138,0.507,0.155,1.205,0.372,1.431c0.216,0.247,0.255,0.1,0.489,0.18c0.216,0.101,0-0.034,0.176,0.451
	c0.156,0.471,0.095,0.899,0.256,1.462c0.21,0.819,0.583,0.506,0.683,0.945c0.077,0.45-0.078,0.45-0.078,0.45
	s-0.371-0.048-0.565,0.079c-0.251,0.154-0.407,0.637-0.534,0.884c-0.144,0.278-0.265,0.657-0.563,0.812
	c-0.72,0.373-1.551,0.594-2.311,0.879c-0.699,0.267-1.401,0.521-2.094,0.799c-0.222,0.092-0.45,0.177-0.662,0.281
	C4.623,21.636,3.568,21.939,3.04,22.3c-0.51,0.359-1.115,1.058-1.115,1.509C1.926,24.266,1.693,27.408,1.693,27.408"/>
</svg>
