<?xml version="1.0" encoding="utf-8"?>
<!-- Generator: Adobe Illustrator 15.0.2, SVG Export Plug-In  -->
<!DOCTYPE svg PUBLIC "-//W3C//DTD SVG 1.1//EN" "http://www.w3.org/Graphics/SVG/1.1/DTD/svg11.dtd" [
	<!ENTITY ns_flows "http://ns.adobe.com/Flows/1.0/">
]>
<svg version="1.1"
	 xmlns="http://www.w3.org/2000/svg" xmlns:xlink="http://www.w3.org/1999/xlink" xmlns:a="http://ns.adobe.com/AdobeSVGViewerExtensions/3.0/"
	 x="0px" y="0px" width="225px" height="105px" viewBox="5.5 4.298 225 105"
	 overflow="visible" enable-background="new 5.5 4.298 225 105" xml:space="preserve">
<defs>
</defs>
<rect x="0.5" y="0.5" fill="#E6F4EC" stroke="#000000" stroke-miterlimit="10" width="234.616" height="113.798"/>
<path fill="#9CC5A1" d="M146.354,23.591c0,0-12.293,0.505-18.837,1.307c-3.705,0.455-1.383-6.787-1.383-8.22
	c0-6.583-33.839,3.002-33.839,3.002v38.797c0,0,2.57,1.117,6.175-0.249c9.146-3.467,24.96-8.439,22.412-0.244
	c-2.152,6.92,24.725,1.352,24.725,1.352s-1.93-14.423,0.477-22.802C148.49,28.154,146.354,23.591,146.354,23.591z"/>
<path fill="#9CC5A1" d="M87.544,15.292c0-2.278-1.847-4.128-4.126-4.128c-2.28,0-4.125,1.85-4.125,4.128v79.583h8.252V15.292
	L87.544,15.292z"/>
</svg>
