<?xml version="1.0" encoding="utf-8"?>
<!-- Generator: Adobe Illustrator 15.0.2, SVG Export Plug-In . SVG Version: 6.00 Build 0)  -->
<!DOCTYPE svg PUBLIC "-//W3C//DTD SVG 1.1//EN" "http://www.w3.org/Graphics/SVG/1.1/DTD/svg11.dtd">
<svg version="1.1" id="Layer_1" xmlns="http://www.w3.org/2000/svg" xmlns:xlink="http://www.w3.org/1999/xlink" x="0px" y="0px"
	 width="30px" height="18px" viewBox="0 0 30 18" enable-background="new 0 0 30 18" xml:space="preserve">
<rect fill="#E5ECF3" width="30" height="18.42"/>
<path fill="#9BAAC5" d="M15.124,1.605c-3.648,0-6.605,2.957-6.605,6.605c0,3.647,2.957,6.604,6.605,6.604
	c3.647,0,6.604-2.957,6.604-6.604C21.729,4.562,18.771,1.605,15.124,1.605z M15.124,13.531c-2.934,0-5.321-2.389-5.321-5.321
	c0-2.934,2.387-5.321,5.321-5.321c2.935,0,5.321,2.387,5.321,5.321C20.443,11.145,18.059,13.531,15.124,13.531z"/>
<path fill="#9BAAC5" d="M15.151,4.202c-2.213,0-4.007,1.794-4.007,4.008s1.794,4.007,4.007,4.007c2.214,0,4.009-1.793,4.009-4.007
	C19.159,5.996,17.365,4.202,15.151,4.202z M16.704,10.455l-0.007-0.006c-0.439,0.305-0.973,0.484-1.546,0.484
	c-0.571,0-1.101-0.18-1.541-0.479v0.001v-0.001c-0.714-0.492-1.183-1.314-1.183-2.244c0-1.491,1.203-2.704,2.69-2.722l0.001-0.003
	l0.001,0.003c0.011,0,0.021-0.002,0.031-0.002c1.502,0,2.724,1.222,2.724,2.724c0,0.926-0.466,1.745-1.175,2.237L16.704,10.455z"/>
<polygon fill="#9BAAC5" points="17.605,7.462 15.669,7.461 15.12,5.488 15.119,5.484 15.118,5.488 14.568,7.461 12.632,7.462 
	14.207,8.501 13.611,10.454 13.611,10.455 13.611,10.454 15.123,9.168 16.697,10.449 16.704,10.455 16.7,10.447 16.037,8.498 "/>
</svg>
