<?xml version="1.0" encoding="utf-8"?>
<!-- Generator: Adobe Illustrator 15.0.2, SVG Export Plug-In  -->
<!DOCTYPE svg PUBLIC "-//W3C//DTD SVG 1.1//EN" "http://www.w3.org/Graphics/SVG/1.1/DTD/svg11.dtd" [
	<!ENTITY ns_flows "http://ns.adobe.com/Flows/1.0/">
]>
<svg version="1.1"
	 xmlns="http://www.w3.org/2000/svg" xmlns:xlink="http://www.w3.org/1999/xlink" xmlns:a="http://ns.adobe.com/AdobeSVGViewerExtensions/3.0/"
	 x="0px" y="0px" width="225px" height="105px" viewBox="5.5 2.226 225 105"
	 overflow="visible" enable-background="new 5.5 2.226 225 105" xml:space="preserve">
<defs>
</defs>
<rect x="0.5" y="0.5" fill="#E5ECF3" stroke="#000000" stroke-miterlimit="10" width="236" height="111.946"/>
<path fill="#9BAAC5" d="M153.909,24.571c0,0-11.751,0.483-18.005,1.25c-3.542,0.436-1.322-6.487-1.322-7.857
	c0-6.292-32.344,2.869-32.344,2.869v37.083c0,0,2.456,1.067,5.902-0.237c8.742-3.314,23.858-8.067,21.421-0.234
	c-2.058,6.614,23.632,1.293,23.632,1.293s-1.845-13.787,0.456-21.795C155.951,28.932,153.909,24.571,153.909,24.571z"/>
<path fill="#9BAAC5" d="M97.697,16.639c0-2.178-1.765-3.945-3.944-3.945c-2.179,0-3.943,1.767-3.943,3.945v76.066h7.887
	L97.697,16.639L97.697,16.639z"/>
</svg>
