<?xml version="1.0" encoding="utf-8"?>
<!-- Generator: Adobe Illustrator 15.0.2, SVG Export Plug-In  -->
<!DOCTYPE svg PUBLIC "-//W3C//DTD SVG 1.1//EN" "http://www.w3.org/Graphics/SVG/1.1/DTD/svg11.dtd" [
	<!ENTITY ns_flows "http://ns.adobe.com/Flows/1.0/">
]>
<svg version="1.1"
	 xmlns="http://www.w3.org/2000/svg" xmlns:xlink="http://www.w3.org/1999/xlink" xmlns:a="http://ns.adobe.com/AdobeSVGViewerExtensions/3.0/"
	 x="0px" y="0px" width="225px" height="105px" viewBox="2.99 5.5 225 105"
	 overflow="visible" enable-background="new 2.99 5.5 225 105" xml:space="preserve">
<defs>
</defs>
<rect x="0.5" y="0.5" fill="#F6F5E8" stroke="#000000" stroke-miterlimit="10" width="239.087" height="117"/>
<path fill="#CCCDA2" d="M146.308,26.792c0,0-11.868,0.488-18.186,1.262c-3.577,0.439-1.335-6.552-1.335-7.936
	c0-6.355-32.668,2.898-32.668,2.898v37.455c0,0,2.48,1.078,5.961-0.24c8.83-3.348,24.097-8.148,21.636-0.236
	c-2.078,6.68,23.869,1.305,23.869,1.305s-1.863-13.924,0.46-22.013C148.371,31.197,146.308,26.792,146.308,26.792z"/>
<path fill="#CCCDA2" d="M89.533,18.78c0-2.199-1.783-3.984-3.984-3.984c-2.201,0-3.982,1.785-3.982,3.984v76.83h7.966V18.78
	L89.533,18.78z"/>
</svg>
