<?xml version="1.0" encoding="utf-8"?>
<!-- Generator: Adobe Illustrator 15.0.2, SVG Export Plug-In . SVG Version: 6.00 Build 0)  -->
<!DOCTYPE svg PUBLIC "-//W3C//DTD SVG 1.1//EN" "http://www.w3.org/Graphics/SVG/1.1/DTD/svg11.dtd">
<svg version="1.1" id="Layer_1" xmlns="http://www.w3.org/2000/svg" xmlns:xlink="http://www.w3.org/1999/xlink" x="0px" y="0px"
	 width="225px" height="105px" viewBox="0 0 225 105" enable-background="new 0 0 225 105" xml:space="preserve">
<rect fill="#E5ECF3" width="225" height="105"/>
<path fill="#9BAAC5" d="M148.455,20.714c0,0-12.939,0.536-19.826,1.389c-3.898,0.482-1.456-7.21-1.456-8.732
	c0-6.993-35.612,3.188-35.612,3.188v41.208c0,0,2.705,1.188,6.499-0.269c9.626-3.688,26.271-8.964,23.586-0.261
	c-2.271,7.35,26.021,1.438,26.021,1.438s-2.032-15.321,0.503-24.221C150.704,25.56,148.455,20.714,148.455,20.714z"/>
<path fill="#9BAAC5" d="M86.561,11.898c0-2.419-1.945-4.383-4.342-4.383c-2.399,0-4.344,1.963-4.344,4.383v84.529h8.686V11.898
	L86.561,11.898z"/>
</svg>
