<?xml version="1.0" encoding="utf-8"?>
<!-- Generator: Adobe Illustrator 15.0.2, SVG Export Plug-In  -->
<!DOCTYPE svg PUBLIC "-//W3C//DTD SVG 1.1//EN" "http://www.w3.org/Graphics/SVG/1.1/DTD/svg11.dtd" [
	<!ENTITY ns_flows "http://ns.adobe.com/Flows/1.0/">
]>
<svg version="1.1"
	 xmlns="http://www.w3.org/2000/svg" xmlns:xlink="http://www.w3.org/1999/xlink" xmlns:a="http://ns.adobe.com/AdobeSVGViewerExtensions/3.0/"
	 x="0px" y="0px" width="80px" height="100px" viewBox="2 -0.148 80 100"
	 overflow="visible" enable-background="new 2 -0.148 80 100" xml:space="preserve">
<defs>
</defs>
<rect fill="#E5ECF3" width="85" height="101.081"/>
<path fill="#FEFEFE" d="M50.572,46.804c0,3.888-3.154,7.042-7.047,7.042c-3.889,0-7.043-3.154-7.043-7.042
	c0-3.893,3.154-7.042,7.043-7.042C47.418,39.762,50.572,42.912,50.572,46.804z"/>
<path fill="#9BAAC5" d="M64.657,28.024H36.482c0-2.59-2.099-4.694-4.694-4.694h-4.695c-2.591,0-4.69,2.104-4.695,4.694h-4.69
	c-2.594,0-4.696,2.1-4.696,4.695l0,0h4.691c2.595,0,4.694,2.104,4.694,4.694v18.778c0,2.596-2.1,4.695-4.694,4.695h-4.691
	c0,2.595,2.102,4.694,4.696,4.694h46.95c2.591,0,4.694-2.1,4.694-4.694V32.72C69.352,30.125,67.248,28.024,64.657,28.024z
	 M43.53,58.541c-6.486,0-11.74-5.254-11.74-11.742c0-6.483,5.254-11.737,11.74-11.737c6.482,0,11.737,5.254,11.737,11.737
	C55.268,53.287,50.013,58.541,43.53,58.541z M61.135,42.109c-1.95,0-3.52-1.577-3.52-3.521c0-1.939,1.569-3.521,3.52-3.521
	c1.942,0,3.523,1.582,3.523,3.521C64.657,40.532,63.077,42.109,61.135,42.109z"/>
<rect x="13.011" y="32.72" width="0.001" height="28.168"/>
<path opacity="0.5" fill="#FFFFFF" enable-background="new    " d="M22.398,56.193V37.415c0-2.591-2.1-4.695-4.694-4.695h-4.692
	v28.168h4.691C20.298,60.888,22.398,58.788,22.398,56.193z"/>
</svg>
