<?xml version="1.0" encoding="utf-8"?>
<!-- Generator: Adobe Illustrator 15.0.2, SVG Export Plug-In . SVG Version: 6.00 Build 0)  -->
<!DOCTYPE svg PUBLIC "-//W3C//DTD SVG 1.1//EN" "http://www.w3.org/Graphics/SVG/1.1/DTD/svg11.dtd">
<svg version="1.1" id="Layer_1" xmlns="http://www.w3.org/2000/svg" xmlns:xlink="http://www.w3.org/1999/xlink" x="0px" y="0px"
	 width="200px" height="200px" viewBox="0 0 200 200" enable-background="new 0 0 200 200" xml:space="preserve">
<rect fill="#E5ECF3" width="200" height="200"/>
<path fill="#9BAAC5" d="M10.522,182.492h175.417c0,0-0.662-21.582-1.541-23.977c-0.937-2.412-0.526-5.916-4.562-8.608
	c-4.068-2.638-4.324-2.423-13.954-7.06c-5.411-2.58-11.082-4.646-16.692-6.756c-5.152-1.932-10.319-3.812-15.434-5.846
	c-3.449-1.363-5.854-3.975-8.341-6.62c-0.896-0.961-1.899-1.981-2.519-3.146c-0.815-1.553-0.446-2.941-2.76-2.584
	c-2.365,0.306-1.703-4.402-1.703-4.402s2.854-1.73,3.771-4.585c0.78-2.699,2.221-13.252,2.221-13.252s1.554,0.303,2.857-0.673
	c1.438-0.895,3.396-3.597,4.952-20.464c0.267-3.504-1.815-1.864-1.815-2.009c-0.922-4.565,2.332-7.643,1.146-24.121
	c-0.227-3.13-0.783-6.227-2.543-8.888c-1.599-2.419-2.967-5.053-4.664-7.388c-1.174-1.605-2.756-3.207-4.463-4.262
	c-7.998-4.941-17.35-7.517-26.762-7.272c-2.013,0.051-3.808,0.532-5.715,1.145c-4.335,1.49-3.921,1.49-5.991,2.695
	c-1.3,0.759-2.307,1.444-3.216,2.642c-0.782,1.035-1.423,2.037-2.861,2.09c-6.529,0.25-7.587,6.608-9.577,11.602
	c-1.558,3.511-1.818,6.147-1.558,8.155c0.258,2.183,0.629,3.369,1.143,7.789c0.378,3.262,0.345,6.55,0.706,9.811
	c0.122,1.114,0.667,2.173,0.865,3.274c0.375,2.108-0.913,0.891-1.571,2.353c-0.514,1.422,0,8.915,0.929,12.128
	c0.92,3.375,1.033,8.018,2.479,9.521c1.442,1.647,1.702,0.665,3.26,1.198c1.436,0.673,0-0.229,1.175,3
	c1.038,3.143,0.633,5.992,1.71,9.738c1.405,5.454,3.886,3.366,4.553,6.295c0.513,2.994-0.523,2.994-0.523,2.994
	s-2.471-0.309-3.768,0.528c-1.67,1.026-2.713,4.239-3.559,5.882c-0.956,1.855-1.764,4.375-3.75,5.404
	c-4.802,2.473-10.343,3.945-15.408,5.85c-4.661,1.746-9.338,3.469-13.96,5.319c-1.477,0.583-2.998,1.149-4.411,1.882
	c-4.028,2.175-11.062,4.198-14.58,6.598c-3.404,2.391-7.433,7.032-7.433,10.041C12.077,161.572,10.522,182.492,10.522,182.492"/>
</svg>
