<?xml version="1.0" encoding="utf-8"?>
<!-- Generator: Adobe Illustrator 15.0.2, SVG Export Plug-In . SVG Version: 6.00 Build 0)  -->
<!DOCTYPE svg PUBLIC "-//W3C//DTD SVG 1.1//EN" "http://www.w3.org/Graphics/SVG/1.1/DTD/svg11.dtd">
<svg version="1.1" id="Layer_1" xmlns="http://www.w3.org/2000/svg" xmlns:xlink="http://www.w3.org/1999/xlink" x="0px" y="0px"
	 width="200px" height="200px" viewBox="0 0 200 200" enable-background="new 0 0 200 200" xml:space="preserve">
<rect fill="#E5ECF3" width="200" height="200"/>
<path fill="#9BAAC5" d="M11.287,182.721h175.406c0,0-0.666-21.611-1.541-24.006c-0.938-2.417-0.527-5.925-4.562-8.623
	c-4.068-2.639-4.326-2.421-13.951-7.062c-5.416-2.58-11.082-4.65-16.695-6.764c-5.148-1.935-10.314-3.816-15.428-5.852
	c-3.453-1.365-5.854-3.977-8.344-6.63c-0.896-0.964-1.896-1.985-2.518-3.146c-0.816-1.56-0.447-2.951-2.76-2.591
	c-2.365,0.308-1.699-4.409-1.699-4.409s2.852-1.734,3.769-4.594c0.784-2.697,2.222-13.266,2.222-13.266s1.551,0.304,2.857-0.673
	c1.436-0.896,3.393-3.602,4.952-20.49c0.263-3.508-1.815-1.866-1.815-2.012c-0.922-4.57,2.332-7.651,1.146-24.151
	c-0.225-3.132-0.785-6.233-2.541-8.899c-1.598-2.421-2.967-5.059-4.666-7.396c-1.172-1.609-2.754-3.212-4.46-4.267
	c-7.997-4.948-17.349-7.527-26.761-7.283c-2.013,0.052-3.806,0.534-5.713,1.147c-4.338,1.491-3.922,1.491-5.993,2.698
	c-1.3,0.758-2.306,1.444-3.214,2.645c-0.784,1.036-1.424,2.04-2.861,2.093c-6.531,0.249-7.588,6.617-9.579,11.616
	c-1.558,3.518-1.819,6.156-1.558,8.166c0.26,2.185,0.629,3.373,1.143,7.799c0.379,3.266,0.345,6.559,0.705,9.824
	c0.122,1.115,0.668,2.177,0.866,3.279c0.375,2.111-0.913,0.89-1.571,2.355c-0.514,1.423,0,8.925,0.929,12.143
	c0.921,3.379,1.034,8.029,2.48,9.533c1.439,1.65,1.7,0.667,3.259,1.201c1.436,0.673,0-0.23,1.176,3.002
	c1.037,3.146,0.632,5.999,1.709,9.75c1.404,5.461,3.887,3.369,4.552,6.302c0.514,3.002-0.523,3.002-0.523,3.002
	s-2.47-0.312-3.769,0.524c-1.67,1.027-2.712,4.248-3.559,5.891c-0.955,1.859-1.763,4.382-3.748,5.412
	c-4.803,2.479-10.344,3.949-15.408,5.854c-4.661,1.75-9.338,3.47-13.96,5.323c-1.476,0.585-2.998,1.15-4.411,1.887
	c-4.027,2.176-11.061,4.201-14.58,6.604c-3.402,2.396-7.432,7.045-7.432,10.053C12.843,161.775,11.287,182.721,11.287,182.721"/>
</svg>
