<?xml version="1.0" encoding="utf-8"?>
<!-- Generator: Adobe Illustrator 15.0.2, SVG Export Plug-In . SVG Version: 6.00 Build 0)  -->
<!DOCTYPE svg PUBLIC "-//W3C//DTD SVG 1.1//EN" "http://www.w3.org/Graphics/SVG/1.1/DTD/svg11.dtd">
<svg version="1.1" id="Layer_1" xmlns="http://www.w3.org/2000/svg" xmlns:xlink="http://www.w3.org/1999/xlink" x="0px" y="0px"
	 width="1020px" height="280px" viewBox="0 0 1020 280" enable-background="new 0 0 1020 280" xml:space="preserve">
<rect fill="#E5ECF3" width="1019" height="280"/>
<path fill="#9BAAC5" d="M597.664,62.223c0,0-32.869,1.351-50.367,3.496c-9.904,1.217-3.697-18.146-3.697-21.979
	c0-17.601-90.472,8.026-90.472,8.026v103.729c0,0,6.87,2.985,16.509-0.664c24.454-9.272,66.736-22.566,59.92-0.656
	c-5.755,18.501,66.104,3.616,66.104,3.616s-5.16-38.564,1.276-60.965C603.375,74.422,597.664,62.223,597.664,62.223z"/>
<path fill="#9BAAC5" d="M440.426,40.035c0-6.091-4.938-11.035-11.032-11.035c-6.097,0-11.029,4.944-11.029,11.035v212.777h22.062
	V40.035L440.426,40.035z"/>
</svg>
