<?xml version="1.0" encoding="utf-8"?>
<!-- Generator: Adobe Illustrator 15.0.2, SVG Export Plug-In . SVG Version: 6.00 Build 0)  -->
<!DOCTYPE svg PUBLIC "-//W3C//DTD SVG 1.1//EN" "http://www.w3.org/Graphics/SVG/1.1/DTD/svg11.dtd">
<svg version="1.1" id="Layer_1" xmlns="http://www.w3.org/2000/svg" xmlns:xlink="http://www.w3.org/1999/xlink" x="0px" y="0px"
	 width="225px" height="115px" viewBox="0 0 225 115" enable-background="new 0 0 225 115" xml:space="preserve">
<rect fill="#E5ECF3" width="225" height="115"/>
<path fill="#9BAAC5" d="M113.723,9.631c-27.288,0-49.407,21.431-49.407,47.869c0,26.438,22.119,47.867,49.407,47.867
	c27.284,0,49.404-21.432,49.404-47.867C163.127,31.062,141.007,9.631,113.723,9.631z M113.723,96.061
	c-21.946,0-39.799-17.299-39.799-38.561c0-21.263,17.853-38.561,39.799-38.561c21.943,0,39.799,17.297,39.799,38.561
	C153.521,78.762,135.666,96.061,113.723,96.061z"/>
<path fill="#9BAAC5" d="M113.934,28.451c-16.561,0-29.979,13.005-29.979,29.049c0,16.042,13.422,29.047,29.979,29.047
	c16.561,0,29.98-13.005,29.98-29.047C143.914,41.456,130.49,28.451,113.934,28.451z M125.545,73.771l-0.052-0.037
	c-3.286,2.205-7.269,3.508-11.562,3.508c-4.273,0-8.244-1.29-11.521-3.477l-0.006,0.006l0.002-0.008
	c-5.338-3.564-8.851-9.521-8.851-16.267c0-10.804,9.004-19.596,20.122-19.729l0.009-0.026l0.01,0.026
	c0.078,0,0.158-0.012,0.236-0.012c11.233,0,20.377,8.855,20.377,19.742c0,6.713-3.482,12.646-8.787,16.215L125.545,73.771z"/>
<polygon fill="#9BAAC5" points="132.291,52.084 117.803,52.076 113.695,37.771 113.688,37.744 113.68,37.771 109.571,52.076 
	95.082,52.084 106.865,59.607 102.407,73.764 102.405,73.771 102.411,73.766 113.714,64.438 125.493,73.734 125.545,73.771 
	125.521,73.715 120.55,59.588 "/>
</svg>
