<?xml version="1.0" encoding="utf-8"?>
<!-- Generator: Adobe Illustrator 15.0.2, SVG Export Plug-In . SVG Version: 6.00 Build 0)  -->
<!DOCTYPE svg PUBLIC "-//W3C//DTD SVG 1.1//EN" "http://www.w3.org/Graphics/SVG/1.1/DTD/svg11.dtd">
<svg version="1.1" id="Layer_1" xmlns="http://www.w3.org/2000/svg" xmlns:xlink="http://www.w3.org/1999/xlink" x="0px" y="0px"
	 width="243px" height="133px" viewBox="0 0 243 133" enable-background="new 0 0 243 133" xml:space="preserve">
<rect fill="#E5ECF3" width="243" height="133"/>
<g>
	<path fill="#9BAAC5" d="M122.5,13C92.952,13,69,36.952,69,66.5c0,29.547,23.952,53.5,53.5,53.5c29.547,0,53.5-23.953,53.5-53.5
		C176,36.952,152.047,13,122.5,13z M122.5,109.598c-23.765,0-43.097-19.334-43.097-43.098c0-23.765,19.333-43.097,43.097-43.097
		c23.764,0,43.098,19.333,43.098,43.097C165.598,90.264,146.264,109.598,122.5,109.598z"/>
	<path fill="#9BAAC5" d="M122.729,34.033c-17.933,0-32.463,14.535-32.463,32.467c0,17.93,14.534,32.465,32.463,32.465
		c17.933,0,32.467-14.535,32.467-32.465C155.193,48.568,140.658,34.033,122.729,34.033z M135.302,84.686l-0.054-0.041
		c-3.561,2.465-7.872,3.918-12.521,3.918c-4.625,0-8.919-1.438-12.475-3.883l-0.007,0.006l0.002-0.009
		c-5.781-3.983-9.583-10.642-9.583-18.177c0-12.075,9.75-21.901,21.79-22.05l0.008-0.029l0.011,0.029
		c0.084,0,0.17-0.014,0.256-0.014c12.166,0,22.063,9.898,22.063,22.064c0,7.503-3.772,14.134-9.517,18.122L135.302,84.686z"/>
	<polygon fill="#9BAAC5" points="142.607,60.447 126.919,60.438 122.473,44.45 122.462,44.42 122.454,44.45 118.004,60.438 
		102.315,60.447 115.076,68.857 110.248,84.677 110.246,84.686 110.252,84.68 122.492,74.256 135.248,84.645 135.302,84.686 
		135.275,84.622 129.896,68.834 	"/>
</g>
</svg>
