<?xml version="1.0" encoding="utf-8"?>
<!-- Generator: Adobe Illustrator 15.0.2, SVG Export Plug-In . SVG Version: 6.00 Build 0)  -->
<!DOCTYPE svg PUBLIC "-//W3C//DTD SVG 1.1//EN" "http://www.w3.org/Graphics/SVG/1.1/DTD/svg11.dtd">
<svg version="1.1" id="Layer_1" xmlns="http://www.w3.org/2000/svg" xmlns:xlink="http://www.w3.org/1999/xlink" x="0px" y="0px"
	 width="145px" height="75px" viewBox="0 0 145 75" enable-background="new 0 0 145 75" xml:space="preserve">
<rect fill="#E5ECF3" width="148" height="75.645"/>
<path fill="#9BAAC5" d="M75.793,7.272c-17.707,0-32.06,13.906-32.06,31.062c0,17.156,14.353,31.061,32.06,31.061
	c17.704,0,32.059-13.905,32.059-31.061C107.852,21.178,93.497,7.272,75.793,7.272z M75.793,63.355
	c-14.24,0-25.825-11.226-25.825-25.021s11.585-25.021,25.825-25.021c14.239,0,25.825,11.224,25.825,25.021
	C101.618,52.13,90.032,63.355,75.793,63.355z"/>
<path fill="#9BAAC5" d="M75.932,19.484c-10.747,0-19.455,8.439-19.455,18.849s8.709,18.849,19.455,18.849
	c10.745,0,19.452-8.438,19.452-18.849S86.674,19.484,75.932,19.484z M83.465,48.893l-0.033-0.024
	c-2.133,1.431-4.717,2.276-7.502,2.276c-2.772,0-5.349-0.838-7.477-2.256l-0.004,0.004l0.002-0.007
	c-3.464-2.312-5.744-6.178-5.744-10.555c0-7.01,5.842-12.715,13.057-12.802l0.006-0.017l0.006,0.017
	c0.051,0,0.104-0.008,0.154-0.008c7.288,0,13.221,5.746,13.221,12.811c0,4.355-2.26,8.206-5.7,10.521L83.465,48.893z"/>
<polygon fill="#9BAAC5" points="87.842,34.819 78.439,34.814 75.775,25.532 75.771,25.515 75.766,25.532 73.1,34.814 63.698,34.819 
	71.343,39.702 68.451,48.886 68.449,48.893 68.454,48.889 75.788,42.836 83.432,48.868 83.465,48.893 83.45,48.855 80.223,39.688 
	"/>
</svg>
