<?xml version="1.0" encoding="utf-8"?>
<!-- Generator: Adobe Illustrator 15.0.2, SVG Export Plug-In . SVG Version: 6.00 Build 0)  -->
<!DOCTYPE svg PUBLIC "-//W3C//DTD SVG 1.1//EN" "http://www.w3.org/Graphics/SVG/1.1/DTD/svg11.dtd">
<svg version="1.1" id="Layer_1" xmlns="http://www.w3.org/2000/svg" xmlns:xlink="http://www.w3.org/1999/xlink" x="0px" y="0px"
	 width="185px" height="220px" viewBox="0 0 185 220" enable-background="new 0 0 185 220" xml:space="preserve">
<rect fill="#E5ECF3" width="185" height="220"/>
<path fill="#FEFEFE" d="M112.723,104.321c0,8.666-7.031,15.697-15.709,15.697c-8.667,0-15.698-7.031-15.698-15.697
	c0-8.676,7.031-15.696,15.698-15.696C105.691,88.625,112.723,95.646,112.723,104.321z"/>
<path fill="#9BAAC5" d="M144.115,62.464h-62.8C81.315,56.69,76.636,52,70.852,52H60.387c-5.774,0-10.454,4.69-10.464,10.464H39.469
	c-5.781,0-10.467,4.68-10.467,10.464l0,0h10.457c5.784,0,10.463,4.69,10.463,10.464v41.857c0,5.784-4.68,10.464-10.463,10.464
	H29.002c0,5.785,4.686,10.465,10.467,10.465h104.646c5.773,0,10.463-4.68,10.463-10.465V72.929
	C154.578,67.145,149.889,62.464,144.115,62.464z M97.025,130.482c-14.456,0-26.167-11.711-26.167-26.171
	c0-14.45,11.711-26.161,26.167-26.161c14.449,0,26.16,11.711,26.16,26.161C123.186,118.771,111.475,130.482,97.025,130.482z
	 M136.266,93.857c-4.348,0-7.848-3.516-7.848-7.849c0-4.323,3.5-7.848,7.848-7.848c4.328,0,7.853,3.525,7.853,7.848
	C144.115,90.342,140.594,93.857,136.266,93.857z"/>
<rect x="29" y="72.929" width="0.002" height="62.785"/>
<path opacity="0.5" fill="#FFFFFF" enable-background="new    " d="M49.923,125.25V83.393c0-5.774-4.68-10.464-10.463-10.464H29.002
	v62.785h10.457C45.243,135.714,49.923,131.034,49.923,125.25z"/>
</svg>
