<?xml version="1.0" encoding="utf-8"?>
<!-- Generator: Adobe Illustrator 15.1.0, SVG Export Plug-In . SVG Version: 6.00 Build 0)  -->
<!DOCTYPE svg PUBLIC "-//W3C//DTD SVG 1.1//EN" "http://www.w3.org/Graphics/SVG/1.1/DTD/svg11.dtd">
<svg version="1.1" id="Layer_1" xmlns="http://www.w3.org/2000/svg" xmlns:xlink="http://www.w3.org/1999/xlink" x="0px" y="0px"
	 width="17px" height="14px" viewBox="0 0 17 14" enable-background="new 0 0 17 14" xml:space="preserve">
<g>
	<polygon fill="#FFFFFF" points="4.25,4.455 12.75,4.455 8.5,9.545 	"/>
	<path fill="#FFFFFF" d="M2.125,13.045C2.125,13.573,1.65,14,1.063,14l0,0C0.475,14,0,13.573,0,13.045V7.318
		c0-0.526,0.475-0.954,1.063-0.954l0,0c0.587,0,1.063,0.428,1.063,0.954V13.045z"/>
	<path fill="#FFFFFF" d="M17,13.045C17,13.573,16.523,14,15.938,14l0,0c-0.586,0-1.063-0.427-1.063-0.955V7.318
		c0-0.526,0.477-0.954,1.063-0.954l0,0C16.523,6.364,17,6.792,17,7.318V13.045z"/>
	<path fill="#FFFFFF" d="M17,13.045C17,13.573,16.523,14,15.938,14H1.063C0.475,14,0,13.573,0,13.045l0,0
		c0-0.525,0.475-0.955,1.063-0.955h14.875C16.523,12.09,17,12.52,17,13.045L17,13.045z"/>
	<g>
		<path fill="#FFFFFF" d="M9.917,4.728c0,0.55-0.45,1-1,1H8.083c-0.55,0-1-0.45-1-1V1c0-0.55,0.45-1,1-1h0.833c0.55,0,1,0.45,1,1
			V4.728z"/>
	</g>
	<path fill="#FFFFFF" d="M4.25,5.728"/>
</g>
</svg>
