<?xml version="1.0" encoding="utf-8"?>
<!-- Generator: Adobe Illustrator 15.0.2, SVG Export Plug-In . SVG Version: 6.00 Build 0)  -->
<!DOCTYPE svg PUBLIC "-//W3C//DTD SVG 1.1//EN" "http://www.w3.org/Graphics/SVG/1.1/DTD/svg11.dtd">
<svg version="1.1" id="Layer_1" xmlns="http://www.w3.org/2000/svg" xmlns:xlink="http://www.w3.org/1999/xlink" x="0px" y="0px"
	 width="30px" height="30px" viewBox="0 0 30 30" enable-background="new 0 0 30 30" xml:space="preserve">
<path fill="#155DB9" d="M28.167,24.202V8.27c-0.933,1.138-1.815,0.937-1.815,0.937v10.309H3.634V9.207c0,0-1.817-0.374-1.817-0.937
	v15.932"/>
<path fill="#155DB9" d="M2.662,0.099l-2.617,3.98L0.001,5.416c0,0-0.138,2.088,2.593,2.584c0.343,0.062,0.733,0.093,1.173,0.088
	c0,0,3.957,0.33,4.006-2.62c-0.027,0.358-0.056,2.62,3.514,2.62c0,0,3.75,0.295,4.22-2.145c-0.006-0.31,0.048-0.527,0.048-0.527
	c0,0.188-0.017,0.363-0.048,0.527c0.015,0.778,0.425,2.145,3.147,2.145c0,0,3.382,0.337,3.382-2.672c0,0,0.339,2.733,4.06,2.733
	c0,0,2.943-0.005,3.596-2.126c0.123-0.607,0.061-1.097,0.123-1.944l-2.594-4.011C27.279-0.119,2.986,0.145,2.662,0.099z
	 M3.845,7.086c-2.559,0-2.547-1.668-2.547-1.668h5.185C6.482,7.299,3.845,7.086,3.845,7.086z M6.482,4.081L1.403,4.079L3.89,1.406
	h5.185L6.482,4.081z M11.288,7.086c-2.557,0-2.214-1.668-2.214-1.668h5.186C14.26,7.299,11.288,7.086,11.288,7.086z M14.26,4.081
	H9.074l1.296-2.674h3.89V4.081L14.26,4.081z M18.73,7.086c-2.562,0-1.879-1.668-1.879-1.668h3.885
	C20.739,7.299,18.73,7.086,18.73,7.086z M15.557,4.081V1.406h3.887L20.74,4.08C20.549,4.11,15.557,4.081,15.557,4.081z
	 M26.178,7.086c-2.558,0-2.845-1.668-2.845-1.668h5.185C28.518,7.299,26.178,7.086,26.178,7.086z M23.331,4.081l-2.592-2.674h5.185
	l2.658,2.672L23.331,4.081z"/>
</svg>
