<?xml version="1.0" encoding="utf-8"?>
<!-- Generator: Adobe Illustrator 15.1.0, SVG Export Plug-In . SVG Version: 6.00 Build 0)  -->
<!DOCTYPE svg PUBLIC "-//W3C//DTD SVG 1.1//EN" "http://www.w3.org/Graphics/SVG/1.1/DTD/svg11.dtd">
<svg version="1.1" id="Layer_1" xmlns="http://www.w3.org/2000/svg" xmlns:xlink="http://www.w3.org/1999/xlink" x="0px" y="0px"
	 width="17px" height="14px" viewBox="0 0 17 14" enable-background="new 0 0 17 14" xml:space="preserve">
<g>
	<path fill="#FFFFFF" d="M13.455,0C9.231,0,7.823,0,3.598,0c-4.797,0-4.796,14.042,0,14.042c4.224,0,5.634,0,9.857,0
		C18.23,14.042,18.23,0,13.455,0z M6.386,7.021c0,0.387-0.319,0.703-0.713,0.703c-0.394,0-0.713-0.315-0.713-0.703v-2.81
		c0-0.388,0.319-0.701,0.713-0.701c0.395,0,0.713,0.313,0.713,0.701V7.021z M9.95,11.935H7.098v-0.7
		c0-0.779,0.639-1.405,1.426-1.405c0.787,0,1.426,0.626,1.426,1.405V11.935z M12.089,7.021c0,0.387-0.319,0.703-0.712,0.703
		c-0.394,0-0.715-0.315-0.715-0.703v-2.81c0-0.388,0.321-0.701,0.715-0.701c0.393,0,0.712,0.313,0.712,0.701V7.021z"/>
</g>
</svg>
