<?xml version="1.0" encoding="utf-8"?>
<!-- Generator: Adobe Illustrator 15.0.2, SVG Export Plug-In . SVG Version: 6.00 Build 0)  -->
<!DOCTYPE svg PUBLIC "-//W3C//DTD SVG 1.1//EN" "http://www.w3.org/Graphics/SVG/1.1/DTD/svg11.dtd">
<svg version="1.1" id="Layer_1" xmlns="http://www.w3.org/2000/svg" xmlns:xlink="http://www.w3.org/1999/xlink" x="0px" y="0px"
	 width="30px" height="30px" viewBox="0 0 30 30" enable-background="new 0 0 30 30" xml:space="preserve">
<path fill="#90B0F5" d="M28.277,11.17c-0.266-0.314-0.546-0.418-0.774-0.486c-0.233-0.063-0.446-0.08-0.67-0.081l-7.71-0.004
	c-0.073,0.003-0.238-0.045-0.375-0.152c-0.141-0.103-0.23-0.25-0.245-0.319l-2.234-8.028c-0.073-0.253-0.155-0.481-0.323-0.729
	c-0.152-0.225-0.491-0.597-1.104-0.611c-0.609,0.013-0.95,0.386-1.103,0.612c-0.168,0.25-0.25,0.48-0.322,0.732l-2.233,8.023
	c-0.016,0.071-0.106,0.217-0.246,0.32c-0.136,0.107-0.302,0.155-0.374,0.152l-7.712,0.004c-0.297,0.004-0.575,0.024-0.911,0.167
	c-0.166,0.073-0.358,0.188-0.531,0.398c-0.175,0.206-0.293,0.525-0.288,0.81c0.01,0.457,0.203,0.735,0.361,0.929
	c0.167,0.196,0.343,0.334,0.539,0.465l6.214,4.095c0.111,0.049,0.307,0.394,0.289,0.623c0,0.058-0.007,0.103-0.018,0.138
	l-2.416,7.917c-0.068,0.229-0.119,0.449-0.121,0.72c0.004,0.227,0.03,0.521,0.259,0.853c0.222,0.341,0.713,0.554,1.048,0.533
	c0.635-0.034,0.9-0.286,1.214-0.524l6.077-5.174c0.049-0.047,0.176-0.1,0.318-0.099c0.138-0.001,0.258,0.048,0.307,0.09l6.405,5.218
	c0.316,0.229,0.578,0.468,1.198,0.502c0.016,0.001,0.031,0.001,0.045,0.001c0.32,0,0.768-0.193,0.986-0.517
	c0.235-0.328,0.264-0.627,0.267-0.851c-0.002-0.289-0.062-0.521-0.141-0.768l-2.716-7.97c-0.013-0.032-0.021-0.081-0.021-0.14
	c-0.016-0.216,0.16-0.523,0.261-0.566l6.185-4.081c0.196-0.131,0.373-0.27,0.54-0.465c0.156-0.194,0.35-0.472,0.358-0.929
	C28.567,11.695,28.45,11.376,28.277,11.17z"/>
</svg>
