<?xml version="1.0" encoding="utf-8"?>
<!-- Generator: Adobe Illustrator 15.0.2, SVG Export Plug-In . SVG Version: 6.00 Build 0)  -->
<!DOCTYPE svg PUBLIC "-//W3C//DTD SVG 1.1//EN" "http://www.w3.org/Graphics/SVG/1.1/DTD/svg11.dtd">
<svg version="1.1" id="Layer_1" xmlns="http://www.w3.org/2000/svg" xmlns:xlink="http://www.w3.org/1999/xlink" x="0px" y="0px"
	 width="30px" height="30px" viewBox="0 0 30 30" enable-background="new 0 0 30 30" xml:space="preserve">
<path fill="#155DB9" d="M14.726,0C7.168,0,1.04,6.102,1.04,13.627c0,7.527,6.127,13.627,13.686,13.627
	c7.556,0,13.685-6.102,13.685-13.627C28.411,6.102,22.282,0,14.726,0z M19.611,15.573h-2.93v2.923c0,1.074-0.875,1.949-1.956,1.949
	c-1.083,0-1.955-0.87-1.955-1.949v-2.923h-2.93c-1.081,0-1.955-0.871-1.955-1.947c0-1.078,0.875-1.945,1.955-1.945h2.932v-2.92
	c0-1.074,0.874-1.947,1.955-1.947c1.079,0,1.956,0.872,1.956,1.947v2.922h2.928c1.082,0,1.957,0.87,1.957,1.947
	C21.568,14.702,20.691,15.573,19.611,15.573z"/>
</svg>
