<?xml version="1.0" encoding="utf-8"?>
<!-- Generator: Adobe Illustrator 15.1.0, SVG Export Plug-In . SVG Version: 6.00 Build 0)  -->
<!DOCTYPE svg PUBLIC "-//W3C//DTD SVG 1.1//EN" "http://www.w3.org/Graphics/SVG/1.1/DTD/svg11.dtd">
<svg version="1.1" id="Layer_1" xmlns="http://www.w3.org/2000/svg" xmlns:xlink="http://www.w3.org/1999/xlink" x="0px" y="0px"
	 width="25px" height="14px" viewBox="0 0 25 14" enable-background="new 0 0 25 14" xml:space="preserve">
<g>
	<polygon fill="#FFFFFF" points="6.689,0.059 24.97,0.059 24.97,9.534 6.689,9.534 6.689,0.059 	"/>
	<path fill="#FFFFFF" d="M21.335,10.139h3.635v0.744c-0.97,0.345-1.927,0.688-2.882,1.047C21.985,11.24,22.012,10.718,21.335,10.139
		L21.335,10.139z"/>
	<path fill="#FFFFFF" d="M17.78,10.139h0.013l0.012-0.013L6.039,10.139V3.211H1.552L0.125,7.412v4.503c0.254,0,0.548,0,0.79,0
		c0.064-1.5,1.301-2.63,2.55-2.63c1.249,0,2.512,1.199,2.485,2.645h11.155C17.181,10.786,17.397,10.662,17.78,10.139L17.78,10.139z
		 M1.884,4.134h3.543v2.809H0.979L1.884,4.134L1.884,4.134z"/>
	<path fill="#FFFFFF" d="M3.452,10.044c0.994,0,1.81,0.881,1.81,1.968c0,1.103-0.816,1.983-1.81,1.983
		c-1.007,0-1.823-0.881-1.823-1.983C1.629,10.925,2.445,10.044,3.452,10.044L3.452,10.044z M3.452,11.089
		c0.472,0,0.854,0.414,0.854,0.923c0,0.538-0.382,0.938-0.854,0.938c-0.484,0-0.854-0.399-0.854-0.938
		C2.598,11.503,2.968,11.089,3.452,11.089L3.452,11.089z"/>
	<path fill="#FFFFFF" d="M19.591,10.044c0.992,0,1.809,0.881,1.809,1.968c0,1.103-0.816,1.983-1.809,1.983
		c-1.007,0-1.824-0.881-1.824-1.983C17.767,10.925,18.584,10.044,19.591,10.044L19.591,10.044z M19.591,11.089
		c0.47,0,0.853,0.414,0.853,0.923c0,0.538-0.383,0.938-0.853,0.938c-0.486,0-0.856-0.399-0.856-0.938
		C18.734,11.503,19.104,11.089,19.591,11.089L19.591,11.089z"/>
</g>
</svg>
