<?xml version="1.0" encoding="utf-8"?>
<!-- Generator: Adobe Illustrator 15.0.2, SVG Export Plug-In . SVG Version: 6.00 Build 0)  -->
<!DOCTYPE svg PUBLIC "-//W3C//DTD SVG 1.1//EN" "http://www.w3.org/Graphics/SVG/1.1/DTD/svg11.dtd">
<svg version="1.1" id="Layer_1" xmlns="http://www.w3.org/2000/svg" xmlns:xlink="http://www.w3.org/1999/xlink" x="0px" y="0px"
	 width="15px" height="14px" viewBox="0 0 15 14" enable-background="new 0 0 15 14" xml:space="preserve">
<g>
	<path fill="#FFFFFF" d="M14.182,0.054H7.314c-0.556,0-0.819,0.27-0.819,0.84v1.277l1.892,1.628v-1.8h4.721V14H15V0.894
		C15,0.324,14.736,0.054,14.182,0.054z"/>
	<polygon fill="#FFFFFF" points="6.495,14 8.387,14 8.387,10.932 6.495,12.557 	"/>
	<path fill="#FFFFFF" d="M5.662,2.972C5.543,2.87,5.434,2.821,5.34,2.821c-0.166,0-0.277,0.155-0.277,0.438v2.039
		c0,0.22,0,0.511,0,0.802H0.835c-0.43,0-0.78,0.361-0.78,0.801v0.928c0,0.442,0.351,0.802,0.78,0.802h4.229c0,0.29,0,0.581,0,0.803
		v2.037c0,0.283,0.111,0.438,0.277,0.438c0.093,0,0.203-0.049,0.321-0.149l4.508-3.878c0.328-0.283,0.328-0.748,0-1.029L5.662,2.972
		z"/>
</g>
</svg>
