<?xml version="1.0" encoding="utf-8"?>
<!-- Generator: Adobe Illustrator 15.0.2, SVG Export Plug-In . SVG Version: 6.00 Build 0)  -->
<!DOCTYPE svg PUBLIC "-//W3C//DTD SVG 1.1//EN" "http://www.w3.org/Graphics/SVG/1.1/DTD/svg11.dtd">
<svg version="1.1" id="Layer_1" xmlns="http://www.w3.org/2000/svg" xmlns:xlink="http://www.w3.org/1999/xlink" x="0px" y="0px"
	 width="21px" height="21px" viewBox="0 0 21 21" enable-background="new 0 0 21 21" xml:space="preserve">
<path fill="#333333" d="M20.529,18.005l-5.022-5.009c-0.059-0.059-0.122-0.104-0.185-0.148c0.848-1.299,1.345-2.846,1.345-4.512
	c0-4.576-3.719-8.285-8.309-8.285c-4.588,0-8.309,3.709-8.309,8.285s3.721,8.285,8.309,8.285c1.669,0,3.222-0.496,4.525-1.34
	c0.049,0.061,0.094,0.125,0.148,0.182l5.021,5.01c0.345,0.342,0.791,0.512,1.237,0.512c0.447,0,0.896-0.17,1.238-0.512
	C21.211,19.791,21.211,18.688,20.529,18.005z M8.358,14.004c-3.135,0-5.685-2.543-5.685-5.668s2.55-5.668,5.685-5.668
	c3.134,0,5.686,2.543,5.686,5.668S11.492,14.004,8.358,14.004z"/>
</svg>
