<?xml version="1.0" encoding="utf-8"?>
<!-- Generator: Adobe Illustrator 15.0.2, SVG Export Plug-In . SVG Version: 6.00 Build 0)  -->
<!DOCTYPE svg PUBLIC "-//W3C//DTD SVG 1.1//EN" "http://www.w3.org/Graphics/SVG/1.1/DTD/svg11.dtd">
<svg version="1.1" id="Layer_1" xmlns="http://www.w3.org/2000/svg" xmlns:xlink="http://www.w3.org/1999/xlink" x="0px" y="0px"
	 width="30px" height="30px" viewBox="0 0 30 30" enable-background="new 0 0 30 30" xml:space="preserve">
<path fill="#155DB9" d="M30.004,17.473v-8.53c0-2.304-1.754-4.199-4-4.42v8.448c0,3.548-2.888,6.435-6.436,6.435H9.664
	c-0.676,0.621-1.348,1.125-1.996,1.537c0.76,0.604,1.72,0.972,2.768,0.972h10.708c4.276,4.366,8.838,3.487,7.931,2.803
	c-1.357-1.024-2.062-2.03-2.375-2.954C28.6,21.26,30.004,19.532,30.004,17.473z"/>
<path fill="#155DB9" d="M24.012,12.971V4.443C24.012,1.989,22.023,0,19.568,0H4.443C1.989,0,0,1.989,0,4.443v8.528
	c0,2.062,1.404,3.789,3.306,4.292c-0.313,0.924-1.019,1.932-2.376,2.948c-0.355,0.271,0.129,0.567,1.108,0.567
	c1.517,0,4.219-0.721,6.82-3.369h10.71C22.023,17.415,24.012,15.425,24.012,12.971z"/>
</svg>
