<?xml version="1.0" encoding="utf-8"?>
<!-- Generator: Adobe Illustrator 15.1.0, SVG Export Plug-In . SVG Version: 6.00 Build 0)  -->
<!DOCTYPE svg PUBLIC "-//W3C//DTD SVG 1.1//EN" "http://www.w3.org/Graphics/SVG/1.1/DTD/svg11.dtd">
<svg version="1.1" id="Layer_1" xmlns="http://www.w3.org/2000/svg" xmlns:xlink="http://www.w3.org/1999/xlink" x="0px" y="0px"
	 width="21px" height="21px" viewBox="0 0 21 21" enable-background="new 0 0 21 21" xml:space="preserve">
<path fill="#EFE04C" d="M10.521,0C4.71,0,0,4.701,0,10.5C0,16.3,4.71,21,10.521,21c5.812,0,10.521-4.7,10.521-10.5
	C21.042,4.701,16.332,0,10.521,0z M14.09,8.592l-4.859,5.755c-0.537,0.636-1.482,0.717-2.112,0.182
	c-0.63-0.537-0.704-1.486-0.167-2.122l4.86-5.754c0.538-0.637,1.48-0.716,2.109-0.18C14.552,7.007,14.628,7.956,14.09,8.592z"/>
</svg>
