<?xml version="1.0" encoding="utf-8"?>
<!-- Generator: Adobe Illustrator 15.1.0, SVG Export Plug-In . SVG Version: 6.00 Build 0)  -->
<!DOCTYPE svg PUBLIC "-//W3C//DTD SVG 1.1//EN" "http://www.w3.org/Graphics/SVG/1.1/DTD/svg11.dtd">
<svg version="1.1" id="Layer_1" xmlns="http://www.w3.org/2000/svg" xmlns:xlink="http://www.w3.org/1999/xlink" x="0px" y="0px"
	 width="20px" height="20px" viewBox="0 0 20 20" enable-background="new 0 0 20 20" xml:space="preserve">
<path fill="#7FC42A" d="M10,0.083c-5.545,0-10.042,4.477-10.042,9.999c0,5.522,4.496,10,10.042,10c5.546,0,10.041-4.478,10.041-10
	C20.041,4.56,15.546,0.083,10,0.083z M13.586,11.51h-2.151v2.145c0,0.789-0.642,1.429-1.434,1.429c-0.793,0-1.435-0.64-1.435-1.429
	V11.51H6.415c-0.793,0-1.435-0.639-1.435-1.428c0-0.79,0.642-1.428,1.435-1.428h2.151V6.512c0-0.789,0.642-1.428,1.435-1.428
	c0.792,0,1.434,0.64,1.434,1.428v2.143h2.151c0.792,0,1.435,0.638,1.435,1.428C15.021,10.871,14.378,11.51,13.586,11.51z"/>
</svg>
