<?xml version="1.0" encoding="utf-8"?>
<!-- Generator: Adobe Illustrator 15.1.0, SVG Export Plug-In . SVG Version: 6.00 Build 0)  -->
<!DOCTYPE svg PUBLIC "-//W3C//DTD SVG 1.1//EN" "http://www.w3.org/Graphics/SVG/1.1/DTD/svg11.dtd">
<svg version="1.1" id="Layer_1" xmlns="http://www.w3.org/2000/svg" xmlns:xlink="http://www.w3.org/1999/xlink" x="0px" y="0px"
	 width="18px" height="18px" viewBox="0 0 18 18" enable-background="new 0 0 18 18" xml:space="preserve">
<path fill="#07BF2E" d="M9,0C4.029,0,0,4.029,0,9s4.029,9,9,9s9-4.029,9-9S13.971,0,9,0z M12.214,10.285h-1.928v1.93
	c0,0.71-0.575,1.285-1.285,1.285c-0.711,0-1.286-0.575-1.286-1.285v-1.93H5.786c-0.71,0-1.286-0.576-1.286-1.286
	s0.575-1.285,1.286-1.285h1.929V5.785C7.715,5.076,8.29,4.5,9.001,4.5c0.71,0,1.285,0.576,1.285,1.285v1.929h1.928
	c0.711,0,1.286,0.575,1.286,1.285S12.925,10.285,12.214,10.285z"/>
</svg>
