<?xml version="1.0" encoding="utf-8"?>
<!-- Generator: Adobe Illustrator 15.0.2, SVG Export Plug-In  -->
<!DOCTYPE svg PUBLIC "-//W3C//DTD SVG 1.1//EN" "http://www.w3.org/Graphics/SVG/1.1/DTD/svg11.dtd" [
	<!ENTITY ns_flows "http://ns.adobe.com/Flows/1.0/">
]>
<svg version="1.1"
	 xmlns="http://www.w3.org/2000/svg" xmlns:xlink="http://www.w3.org/1999/xlink" xmlns:a="http://ns.adobe.com/AdobeSVGViewerExtensions/3.0/"
	 x="0px" y="0px" width="25px" height="25px" viewBox="-0.437 -2.333 25 25"
	 overflow="visible" enable-background="new -0.437 -2.333 25 25" xml:space="preserve">
<defs>
</defs>
<circle fill="#FFFFFF" cx="10.952" cy="17.286" r="1.682"/>
<circle fill="#FFFFFF" cx="18.991" cy="17.286" r="1.682"/>
<path fill="#FFFFFF" d="M20.965,12.559H9.257L5.227,0.581C5.109,0.234,4.784,0,4.417,0H0.855C0.384,0,0,0.383,0,0.855
	c0,0.472,0.384,0.854,0.855,0.854h2.947l4.03,11.978c0.117,0.348,0.444,0.582,0.81,0.582h12.323c0.472,0,0.854-0.382,0.854-0.855
	C21.82,12.942,21.437,12.559,20.965,12.559z"/>
<path fill="#FFFFFF" d="M22.797,3.236L8.304,1.973c-0.468-0.042-0.729,0.29-0.579,0.735l2.533,7.521
	c0.15,0.446,0.658,0.811,1.128,0.811h10.58c0.471,0,0.896-0.382,0.946-0.85l0.646-6.029C23.609,3.693,23.266,3.277,22.797,3.236z"/>
</svg>
