<?xml version="1.0" encoding="utf-8"?>
<!-- Generator: Adobe Illustrator 15.0.2, SVG Export Plug-In  -->
<!DOCTYPE svg PUBLIC "-//W3C//DTD SVG 1.1//EN" "http://www.w3.org/Graphics/SVG/1.1/DTD/svg11.dtd" [
	<!ENTITY ns_flows "http://ns.adobe.com/Flows/1.0/">
]>
<svg version="1.1"
	 xmlns="http://www.w3.org/2000/svg" xmlns:xlink="http://www.w3.org/1999/xlink" xmlns:a="http://ns.adobe.com/AdobeSVGViewerExtensions/3.0/"
	 x="0px" y="0px" width="16px" height="16px" viewBox="0 -0.004 16 16" overflow="visible" enable-background="new 0 -0.004 16 16"
	 xml:space="preserve">
<defs>
</defs>
<path fill="#07BF2E" d="M7.73,0C3.462,0,0,3.446,0,7.697c0,4.252,3.461,7.699,7.73,7.699c4.271,0,7.73-3.448,7.73-7.699
	C15.461,3.446,12.001,0,7.73,0z M10.491,8.797H8.835v1.651c0,0.605-0.494,1.101-1.103,1.101c-0.611,0-1.104-0.492-1.104-1.101V8.797
	H4.972c-0.611,0-1.105-0.493-1.105-1.1c0-0.609,0.494-1.099,1.105-1.099h1.656v-1.65c0-0.607,0.494-1.1,1.104-1.1
	c0.609,0,1.103,0.493,1.103,1.1v1.65h1.656c0.609,0,1.105,0.491,1.105,1.1C11.597,8.305,11.101,8.797,10.491,8.797z"/>
</svg>
