<?xml version="1.0" encoding="utf-8"?>
<!-- Generator: Adobe Illustrator 15.0.2, SVG Export Plug-In  -->
<!DOCTYPE svg PUBLIC "-//W3C//DTD SVG 1.1//EN" "http://www.w3.org/Graphics/SVG/1.1/DTD/svg11.dtd" [
	<!ENTITY ns_flows "http://ns.adobe.com/Flows/1.0/">
]>
<svg version="1.1"
	 xmlns="http://www.w3.org/2000/svg" xmlns:xlink="http://www.w3.org/1999/xlink" xmlns:a="http://ns.adobe.com/AdobeSVGViewerExtensions/3.0/"
	 x="0px" y="0px" width="35px" height="35px" viewBox="-1.141 -2.515 35 35"
	 overflow="visible" enable-background="new -1.141 -2.515 35 35" xml:space="preserve">
<defs>
</defs>
<path fill-rule="evenodd" clip-rule="evenodd" fill="#333333" d="M0,30.331h32.858c0,0-0.125-4.043-0.289-4.491
	c-0.176-0.451-0.098-1.108-0.854-1.613c-0.763-0.493-0.812-0.452-2.613-1.322c-1.015-0.481-2.076-0.869-3.129-1.265
	c-0.964-0.36-1.932-0.714-2.89-1.094c-0.646-0.256-1.097-0.744-1.562-1.24c-0.168-0.181-0.354-0.372-0.472-0.589
	c-0.152-0.292-0.084-0.552-0.517-0.484c-0.442,0.057-0.318-0.826-0.318-0.826s0.535-0.324,0.706-0.858
	c0.146-0.505,0.415-2.481,0.415-2.481s0.291,0.056,0.536-0.126c0.27-0.167,0.636-0.674,0.928-3.833
	c0.049-0.657-0.34-0.35-0.34-0.376c-0.174-0.855,0.437-1.432,0.215-4.518c-0.042-0.587-0.147-1.167-0.478-1.665
	c-0.298-0.453-0.556-0.947-0.874-1.383c-0.218-0.301-0.515-0.601-0.834-0.798c-1.499-0.926-3.251-1.408-5.014-1.363
	c-0.377,0.01-0.712,0.1-1.07,0.215c-0.812,0.279-0.735,0.279-1.123,0.505c-0.244,0.142-0.432,0.271-0.603,0.495
	c-0.146,0.193-0.266,0.381-0.535,0.391c-1.224,0.047-1.422,1.238-1.794,2.173c-0.292,0.658-0.341,1.152-0.292,1.528
	c0.048,0.408,0.118,0.63,0.214,1.458c0.071,0.611,0.064,1.227,0.132,1.837c0.023,0.209,0.125,0.407,0.162,0.614
	c0.07,0.395-0.171,0.166-0.294,0.44c-0.097,0.267,0,1.67,0.174,2.272c0.173,0.631,0.194,1.501,0.464,1.783
	c0.27,0.309,0.319,0.125,0.611,0.225c0.269,0.126,0-0.043,0.221,0.562c0.194,0.588,0.119,1.121,0.32,1.824
	c0.263,1.021,0.729,0.63,0.853,1.178c0.096,0.562-0.098,0.562-0.098,0.562s-0.463-0.058-0.706,0.1
	c-0.312,0.192-0.508,0.794-0.667,1.102c-0.179,0.349-0.33,0.819-0.702,1.012c-0.899,0.464-1.938,0.739-2.886,1.097
	c-0.873,0.327-1.749,0.648-2.615,0.996c-0.276,0.108-0.562,0.215-0.826,0.353C3.66,23.131,2.343,23.51,1.684,23.96
	c-0.637,0.447-1.392,1.317-1.392,1.88C0.292,26.412,0,30.331,0,30.331"/>
</svg>
